<?xml version="1.0" encoding="UTF-8" standalone="no"?>
<!-- Created with Inkscape (http://www.inkscape.org/) -->
<svg
   xmlns:dc="http://purl.org/dc/elements/1.1/"
   xmlns:cc="http://creativecommons.org/ns#"
   xmlns:rdf="http://www.w3.org/1999/02/22-rdf-syntax-ns#"
   xmlns:svg="http://www.w3.org/2000/svg"
   xmlns="http://www.w3.org/2000/svg"
   xmlns:sodipodi="http://sodipodi.sourceforge.net/DTD/sodipodi-0.dtd"
   xmlns:inkscape="http://www.inkscape.org/namespaces/inkscape"
   width="683"
   height="600"
   id="svg2676"
   sodipodi:version="0.32"
   inkscape:version="0.46"
   version="1.0"
   sodipodi:docname="schematicy-atom.svg"
   inkscape:output_extension="org.inkscape.output.svg.inkscape">
  <defs
     id="defs2678">
    <inkscape:perspective
       sodipodi:type="inkscape:persp3d"
       inkscape:vp_x="0 : 526.18109 : 1"
       inkscape:vp_y="0 : 1000 : 0"
       inkscape:vp_z="744.09448 : 526.18109 : 1"
       inkscape:persp3d-origin="372.04724 : 350.78739 : 1"
       id="perspective2684" />
    <inkscape:perspective
       id="perspective2767"
       inkscape:persp3d-origin="372.04724 : 350.78739 : 1"
       inkscape:vp_z="744.09448 : 526.18109 : 1"
       inkscape:vp_y="0 : 1000 : 0"
       inkscape:vp_x="0 : 526.18109 : 1"
       sodipodi:type="inkscape:persp3d" />
  </defs>
  <sodipodi:namedview
     id="base"
     pagecolor="#ffffff"
     bordercolor="#666666"
     borderopacity="1.0"
     gridtolerance="10000"
     guidetolerance="10"
     objecttolerance="10"
     inkscape:pageopacity="0.0"
     inkscape:pageshadow="2"
     inkscape:zoom="1.0452675"
     inkscape:cx="632.89008"
     inkscape:cy="259.8732"
     inkscape:document-units="px"
     inkscape:current-layer="layer1"
     showgrid="false"
     inkscape:window-width="1856"
     inkscape:window-height="1306"
     inkscape:window-x="0"
     inkscape:window-y="22" />
  <metadata
     id="metadata2681">
    <rdf:RDF>
      <cc:Work
         rdf:about="">
        <dc:format>image/svg+xml</dc:format>
        <dc:type
           rdf:resource="http://purl.org/dc/dcmitype/StillImage" />
      </cc:Work>
    </rdf:RDF>
  </metadata>
  <g
     inkscape:label="Layer 1"
     inkscape:groupmode="layer"
     id="layer1"
     transform="translate(-26.088943,-115.90433)">
    <g
       id="g2862"
       transform="translate(-4.7834676,66.968502)">
      <path
         id="path2864"
         d="M 30.872411,348.93583 L 30.872411,48.93583 L 372.37241,48.93583 L 713.87241,48.93583 L 713.87241,348.93583 L 713.87241,648.93583 L 372.37241,648.93583 L 30.872411,648.93583 L 30.872411,348.93583 z"
         style="fill:#fdfdfc" />
      <path
         id="path2866"
         d="M 208.19659,647.49634 C 196.62446,643.87795 188.50572,634.28908 184.40164,619.39266 C 182.14586,611.20491 181.3442,589.72477 182.77614,575.83802 C 186.24256,542.22125 200.06742,492.90668 219.55688,444.63761 C 221.51072,439.7986 222.89493,435.62502 222.63291,435.363 C 222.3709,435.10098 214.78009,433.74507 205.76446,432.34985 C 79.303784,412.77946 14.46546,375.73667 34.70595,334.6224 C 42.410741,318.97174 65.41131,303.09238 96.723257,291.80626 C 106.03378,288.45036 106.0838,288.41412 108.323,283.40116 C 113.74404,271.26492 126.36291,267.81619 136.70739,275.64372 C 139.75296,277.94826 140.4472,278.08037 144.70739,277.16616 C 165.94231,272.60927 192.1109,267.61365 205.76446,265.51029 C 214.78009,264.12141 222.36148,262.7801 222.61199,262.52959 C 222.86249,262.27908 220.30359,255.02523 216.92553,246.40993 C 198.76333,200.08956 186.01771,153.67611 182.77051,122.03364 C 181.39318,108.61225 182.1263,86.68382 184.20003,79.27451 C 191.03139,54.8666 207.30605,44.85708 230.58754,50.74447 C 252.88766,56.3837 278.12059,74.10694 311.9444,107.88837 C 331.54004,127.45945 342.35101,139.54705 361.17803,162.93583 C 366.71213,169.81083 371.76111,175.43583 372.39799,175.43583 C 373.03488,175.43583 377.30129,170.71083 381.8789,164.93583 C 414.83431,123.36016 452.96897,85.42748 480.46044,66.87642 C 515.84339,43.00026 543.81381,43.41683 556.3876,68.00723 C 561.42743,77.86355 562.37443,83.88849 562.27064,105.43583 C 562.18851,122.4857 561.77829,127.63516 559.48961,140.34589 L 556.80492,155.25595 L 559.21648,157.84589 C 562.89355,161.79495 563.87241,164.33335 563.87241,169.91975 C 563.87241,177.84489 560.15931,183.19723 551.72604,187.42841 L 547.725,189.43583 L 540.90374,209.93583 C 537.15205,221.21083 531.52232,236.96083 528.39323,244.93583 C 520.7853,264.32588 521.08096,262.70942 525.02253,263.36429 C 526.86496,263.6704 535.79741,265.08856 544.87241,266.51576 C 626.68297,279.38187 686.0561,301.73502 705.24138,326.89241 C 725.07078,352.89445 709.88546,378.96861 662.57362,400.15566 C 633.91796,412.98815 589.75225,424.49266 538.98036,432.34985 C 529.96473,433.74507 522.38334,435.09156 522.13283,435.34207 C 521.88233,435.59258 524.44123,442.84643 527.81929,451.46173 C 545.98149,497.7821 558.72711,544.19555 561.97431,575.83802 C 563.35164,589.25941 562.61852,611.18784 560.54479,618.59715 C 553.69542,643.06942 537.44905,653.01718 514.0109,647.09017 C 498.91358,643.27238 479.96463,632.13072 459.41204,614.98697 L 448.45167,605.84449 L 443.24484,606.49504 C 436.38368,607.35228 431.84342,605.75303 427.50492,600.95083 C 423.35785,596.36051 421.73139,591.24384 422.54121,585.33553 L 423.13096,581.03281 L 412.21203,568.73432 C 399.81763,554.77395 389.12489,542.09854 379.90414,530.43583 C 376.42542,526.03583 373.04137,522.43583 372.38403,522.43583 C 371.72668,522.43583 367.44353,527.16083 362.86592,532.93583 C 330.03411,574.35557 291.76491,612.45156 264.52126,630.83539 C 242.83962,645.46601 221.7009,651.71888 208.19659,647.49634 z M 228.41231,634.40771 C 257.14531,627.04083 303.15493,586.85551 350.31577,527.93583 C 355.37847,521.61083 360.54935,515.02079 361.80663,513.29129 L 364.09258,510.14676 L 352.84949,494.35913 C 343.21509,480.83042 321.82341,449.18947 319.21434,444.60855 C 318.55862,443.45727 314.28066,442.87975 299.87241,441.99743 C 283.67159,441.00533 263.3784,439.32218 243.26931,437.30266 L 237.16621,436.68974 L 232.03424,448.84131 C 214.01314,491.51204 199.77284,541.45524 195.81981,575.85165 C 194.33862,588.73984 195.0809,610.57675 197.23334,617.43583 C 202.22578,633.34502 211.93779,638.63163 228.41231,634.40771 z M 537.65034,632.70148 C 542.7272,629.34178 547.31786,620.33118 548.98064,610.46226 C 551.67235,594.48636 548.59512,564.12918 541.22335,533.93583 C 534.00182,504.35787 510.93032,438.66276 507.27124,437.25863 C 506.56915,436.98922 499.1047,437.46578 490.68357,438.31765 C 476.07748,439.79519 459.86853,441.06199 436.87241,442.52321 L 426.37241,443.19041 L 415.88031,459.27019 C 410.10965,468.11406 399.83756,483.14258 393.05344,492.66689 L 380.71867,509.98382 L 386.04554,517.20202 C 393.03366,526.67131 408.65006,545.5094 421.72118,560.23763 L 432.19513,572.03942 L 437.34621,571.39584 C 449.34908,569.89618 458.6362,578.71196 457.64501,590.66445 L 457.19889,596.04403 L 462.28565,600.63558 C 471.15137,608.63821 484.89798,618.8592 494.50942,624.59485 C 513.4742,635.91214 528.52501,638.74034 537.65034,632.70148 z M 382.60141,485.18583 C 395.62722,466.83892 409.87241,445.72295 409.87241,444.76141 C 409.87241,444.30734 392.94927,443.93583 372.26542,443.93583 C 339.28278,443.93583 334.72906,444.11989 335.23284,445.4327 C 337.03748,450.13552 370.83258,497.93583 372.35286,497.93583 C 373.01088,497.93583 377.62273,492.19833 382.60141,485.18583 z M 417.22682,430.06752 C 419.6603,429.52898 421.76584,426.6339 431.50464,410.43583 C 444.83282,388.26771 465.87241,350.64441 465.87241,348.97888 C 465.87241,346.79636 442.21026,304.70579 427.05833,279.93583 C 421.35555,270.61309 419.48874,268.31623 417.19806,267.80414 C 413.51168,266.98004 331.2419,266.98004 327.518,267.80414 C 325.08452,268.34268 322.97898,271.23776 313.24018,287.43583 C 299.912,309.60395 278.87241,347.22725 278.87241,348.89278 C 278.87241,351.09108 303.67531,395.20071 318.08226,418.62381 C 323.71288,427.77819 325.45526,429.88672 327.66805,430.22398 C 332.08805,430.89766 414.12327,430.75434 417.22682,430.06752 z M 343.0773,384.80536 C 341.26499,384.28281 337.59743,381.7359 334.92716,379.14555 C 327.72472,372.15869 325.98648,363.69265 329.95644,354.93583 C 333.51256,347.09186 339.30275,342.69018 347.86633,341.32081 C 350.16393,340.95341 352.29941,339.98667 352.61183,339.1725 C 352.92426,338.35832 352.43348,335.6095 351.5212,333.06401 C 348.3555,324.23084 350.05781,316.79944 356.85353,309.78591 C 362.09846,304.37288 367.69239,302.40378 375.28027,303.29959 C 388.06807,304.80927 397.56455,318.61897 393.92255,330.40903 C 393.2384,332.62377 392.60975,335.74676 392.52553,337.349 C 392.38311,340.05852 392.72196,340.3431 397.37241,341.41969 C 406.72664,343.58523 411.22532,347.07655 414.78838,354.93583 C 418.41705,362.93983 417.1671,370.895 411.1822,377.88702 C 402.23759,388.33678 388.82071,388.72896 378.37105,378.8461 C 375.51551,376.14545 372.73665,373.93583 372.19579,373.93583 C 371.65494,373.93583 368.98873,376.13629 366.27088,378.82574 C 359.57628,385.45041 352.04686,387.39159 343.0773,384.80536 z M 308.87241,428.48106 C 308.87241,428.23094 305.79091,422.94344 302.02462,416.73106 C 294.94489,405.05325 281.74471,382.1238 275.80483,371.18583 C 273.93809,367.74833 271.82357,364.93583 271.10589,364.93583 C 269.7795,364.93583 258.11949,388.32373 248.2188,410.84328 C 244.57637,419.12815 243.13171,423.47805 243.87091,423.9349 C 244.8513,424.54082 251.2728,425.20962 282.37241,427.94482 C 291.88673,428.7816 308.87241,429.12532 308.87241,428.48106 z M 467.37241,427.44448 C 476.72241,426.63875 487.82018,425.68331 492.03411,425.32127 C 496.24805,424.95922 500.26775,424.30953 500.96677,423.87751 C 501.92604,423.28465 500.92492,420.1913 496.88453,411.26392 C 485.19911,385.44455 474.92605,364.9363 473.68237,364.94514 C 472.96189,364.95026 470.12241,369.09164 467.37241,374.14819 C 464.62241,379.20475 457.47186,391.68806 451.4823,401.88888 C 445.49275,412.0897 439.49177,422.34833 438.14681,424.68583 L 435.70142,428.93583 L 443.03692,428.92263 C 447.07144,428.91537 458.02241,428.2502 467.37241,427.44448 z M 232.67837,413.43583 C 234.54735,409.03583 242.1056,393.1091 249.47447,378.04311 C 256.84334,362.97711 262.87241,349.80932 262.87241,348.78135 C 262.87241,347.75337 259.19793,339.6051 254.70689,330.67407 C 250.21585,321.74304 242.60137,305.88583 237.78581,295.43583 C 231.02883,280.77285 228.56823,276.36453 227.00621,276.12347 C 223.6609,275.60721 196.79378,279.78832 173.37241,284.47006 C 144.11364,290.31866 144.01508,290.35014 142.32955,294.38417 C 136.78619,307.65131 124.28486,310.64734 111.69466,301.72604 C 110.33747,300.76435 108.33127,301.17132 101.19466,303.85603 C 65.317469,317.35262 43.891949,334.20799 43.891949,348.93583 C 43.891949,369.23368 82.115357,391.45849 143.41641,406.80385 C 170.97477,413.70248 216.77438,421.98011 225.32631,421.60791 C 229.28013,421.43583 229.28028,421.43567 232.67837,413.43583 z M 534.56756,419.92964 C 580.23741,413.29268 627.93095,401.17395 655.62811,389.16868 C 683.61851,377.03629 700.85287,361.70427 700.85287,348.93583 C 700.85287,336.16739 683.61851,320.83537 655.62811,308.70298 C 633.68508,299.19182 598.19511,289.28803 561.87241,282.53964 C 537.08317,277.93404 517.08714,275.29722 516.00694,276.4915 C 515.53718,277.01088 512.09742,284.18583 508.36305,292.43583 C 504.62868,300.68583 497.14059,316.31905 491.72285,327.17631 C 486.30511,338.03357 481.87241,347.82557 481.87241,348.93631 C 481.87241,350.04704 486.09181,359.38883 491.24886,369.69583 C 499.70877,386.604 506.41149,400.79188 513.32903,416.43365 C 516.20586,422.93867 515.10685,422.75777 534.56756,419.92964 z M 279.86708,319.29862 C 283.98915,311.812 292.20743,297.53017 298.12992,287.56121 L 308.89809,269.43583 L 305.13525,269.08775 C 298.00456,268.42813 244.66291,272.812 243.30571,274.1692 C 241.93166,275.54325 269.06214,332.94281 271.0764,332.92324 C 271.78921,332.91631 275.74501,326.78523 279.86708,319.29862 z M 483.46607,315.18583 C 497.71267,285.5709 502.27084,274.80011 500.9125,273.9606 C 499.67872,273.19809 497.22699,272.94295 466.87241,270.41824 C 449.4811,268.97174 435.87241,268.52061 435.87241,269.3906 C 435.87241,269.64072 438.95391,274.92822 442.7202,281.1406 C 449.79993,292.81841 463.00011,315.74786 468.93999,326.68583 C 470.80673,330.12333 472.91752,332.93583 473.63065,332.93583 C 474.34377,332.93583 478.76971,324.94833 483.46607,315.18583 z M 265.37241,258.4816 C 274.17241,257.67064 289.69741,256.49732 299.87241,255.87423 C 314.04716,255.00621 318.56446,254.4043 319.19383,253.29975 C 321.95752,248.44952 341.97718,218.85038 352.08562,204.66914 L 364.03698,187.90245 L 358.70469,180.67694 C 343.9699,160.71058 317.71606,130.86066 298.24497,111.93583 C 256.94199,71.7916 223.27572,54.46194 207.22531,65.08359 C 188.04704,77.77517 191.32007,132.45581 215.59648,204.93583 C 220.91798,220.82378 230.38325,246.15593 234.79661,256.3216 L 236.91773,261.20738 L 243.14507,260.58173 C 246.57011,260.23762 256.57241,259.29256 265.37241,258.4816 z M 511.03867,253.43583 C 518.89852,235.0801 534.87241,189.63294 534.87241,185.62669 C 534.87241,184.58051 533.76532,182.40884 532.4122,180.80075 C 525.42189,172.49324 529.1028,158.37554 539.45283,153.79723 C 544.41675,151.60145 544.1878,152.13287 546.93246,136.43583 C 549.55468,121.43897 550.57744,96.88887 548.97601,87.38281 C 547.32964,77.61001 542.71852,68.52414 537.72964,65.22265 C 514.41007,49.79049 457.04311,91.70991 394.42905,169.93583 C 389.36635,176.26083 384.20226,182.84169 382.95328,184.55995 L 380.68242,187.68408 L 394.02742,206.56945 C 401.36716,216.95641 411.64741,232.03568 416.87241,240.07895 L 426.37241,254.70307 L 437.37241,255.3779 C 454.45221,256.42571 485.61948,258.92409 493.37241,259.86688 C 497.22241,260.33505 502.09791,260.65459 504.20686,260.57697 C 507.96738,260.43855 508.09908,260.30089 511.03867,253.43583 z M 409.51198,252.43896 C 407.70734,247.73614 373.91224,199.93583 372.39196,199.93583 C 370.76036,199.93583 334.87241,250.79788 334.87241,253.11025 C 334.87241,253.56432 351.79555,253.93583 372.4794,253.93583 C 405.46204,253.93583 410.01576,253.75177 409.51198,252.43896 z"
         style="fill:#1399dd" />
      <path
         id="path2868"
         d="M 208.19659,647.49634 C 196.62446,643.87795 188.50572,634.28908 184.40164,619.39266 C 182.14586,611.20491 181.3442,589.72477 182.77614,575.83802 C 186.54281,539.30952 200.56274,491.12043 225.07886,430.43583 C 226.18984,427.68583 228.36202,422.73583 229.90593,419.43583 C 231.44984,416.13583 235.28303,407.81083 238.42413,400.93583 C 241.56523,394.06083 248.35109,380.00283 253.50382,369.69583 C 258.65654,359.38883 262.87241,350.04704 262.87241,348.93631 C 262.87241,347.82557 258.43971,338.03357 253.02197,327.17631 C 247.60423,316.31905 240.11614,300.68583 236.38177,292.43583 C 232.6474,284.18583 229.20509,277.00833 228.73221,276.48583 C 228.25932,275.96333 227.87241,274.92296 227.87241,274.1739 C 227.87241,273.42485 226.79639,270.47735 225.48126,267.6239 C 221.70424,259.42889 211.2567,232.12631 205.76172,216.09079 C 193.83209,181.27752 185.24523,146.14865 182.77051,122.03364 C 181.39318,108.61225 182.1263,86.68382 184.20003,79.27451 C 191.03139,54.8666 207.30605,44.85708 230.58754,50.74447 C 252.88766,56.3837 278.12059,74.10694 311.9444,107.88837 C 331.54004,127.45945 342.35101,139.54705 361.17803,162.93583 C 366.71213,169.81083 371.76111,175.43583 372.39799,175.43583 C 373.03488,175.43583 377.30129,170.71083 381.8789,164.93583 C 414.83431,123.36016 452.96897,85.42748 480.46044,66.87642 C 515.84339,43.00026 543.81381,43.41683 556.3876,68.00723 C 561.42743,77.86355 562.37443,83.88849 562.27064,105.43583 C 562.18851,122.4857 561.77829,127.63516 559.48961,140.34589 L 556.80492,155.25595 L 559.21648,157.84589 C 562.89355,161.79495 563.87241,164.33335 563.87241,169.91975 C 563.87241,177.85448 560.14931,183.2128 551.70692,187.42841 L 547.68675,189.43583 L 541.40343,208.43583 C 535.24023,227.07263 532.79981,233.86328 525.41106,252.93583 C 520.14663,266.52491 518.07161,271.5106 514.36499,279.47659 C 512.56313,283.349 508.73458,291.674 505.8571,297.97659 C 502.97962,304.27917 496.40591,317.86883 491.24886,328.17583 C 486.09181,338.48283 481.87241,347.82483 481.87241,348.93583 C 481.87241,350.04683 486.15616,359.51431 491.39186,369.97469 C 496.62756,380.43506 504.09988,396.06807 507.99703,404.71469 C 511.89417,413.36132 515.48542,420.86333 515.97758,421.38583 C 516.46974,421.90833 516.87241,422.9487 516.87241,423.69776 C 516.87241,424.44681 517.94843,427.39431 519.26356,430.24776 C 523.04058,438.44277 533.48812,465.74535 538.9831,481.78087 C 550.91273,516.59414 559.49959,551.72301 561.97431,575.83802 C 563.35164,589.25941 562.61852,611.18784 560.54479,618.59715 C 553.69542,643.06942 537.44905,653.01718 514.0109,647.09017 C 498.91358,643.27238 479.96463,632.13072 459.41204,614.98697 L 448.45167,605.84449 L 443.24484,606.49504 C 436.38368,607.35228 431.84342,605.75303 427.50492,600.95083 C 423.35785,596.36051 421.73139,591.24384 422.54121,585.33553 L 423.13096,581.03281 L 412.21203,568.73432 C 399.81763,554.77395 389.12489,542.09854 379.90414,530.43583 C 376.42542,526.03583 373.04137,522.43583 372.38403,522.43583 C 371.72668,522.43583 367.44353,527.16083 362.86592,532.93583 C 330.03411,574.35557 291.76491,612.45156 264.52126,630.83539 C 242.83962,645.46601 221.7009,651.71888 208.19659,647.49634 z M 228.41231,634.40771 C 257.14531,627.04083 303.15493,586.85551 350.31577,527.93583 C 355.37847,521.61083 360.5481,515.02249 361.80384,513.29507 L 364.087,510.1543 L 352.11274,493.29507 C 339.43846,475.45024 318.87241,444.69919 318.87241,443.59302 C 318.87241,442.78588 329.61191,442.74376 332.37241,443.54007 C 333.47241,443.85739 336.84236,448.00118 339.86118,452.7485 C 349.46971,467.85861 371.08924,497.93583 372.34187,497.93583 C 373.60663,497.93583 385.34964,481.8063 400.73561,458.93583 C 405.73073,451.51083 410.29771,444.87333 410.88446,444.18583 C 411.98854,442.89215 425.87241,442.34301 425.87241,443.59302 C 425.87241,444.73074 405.12662,475.72107 392.66242,493.20252 L 380.70784,509.96921 L 386.04013,517.19472 C 393.03327,526.67077 408.64667,545.50558 421.72118,560.23763 L 432.19513,572.03942 L 437.34621,571.39584 C 449.34908,569.89618 458.6362,578.71196 457.64501,590.66445 L 457.19889,596.04403 L 462.28565,600.62455 C 471.60813,609.01925 484.0443,618.25568 494.39417,624.47176 C 513.28402,635.81692 528.51593,638.74636 537.54565,632.77077 C 556.69612,620.09758 553.4097,565.37092 529.14834,492.93583 C 523.17704,475.10783 513.4022,449.11422 509.49698,440.67824 C 508.16222,437.79491 506.74901,434.31083 506.35652,432.93583 C 505.96403,431.56083 504.84635,428.86083 503.87278,426.93583 C 502.89922,425.01083 499.72411,418.03583 496.817,411.43583 C 486.73109,388.53787 474.98548,364.9359 473.68237,364.94842 C 472.96189,364.95535 468.99741,371.09297 464.87241,378.58759 C 460.74741,386.08221 452.39404,400.58904 446.30937,410.825 L 435.24634,429.43583 L 429.01589,430.21118 C 425.58914,430.63763 422.17212,430.63763 421.4225,430.21118 C 420.3854,429.6212 422.7932,424.8934 431.4938,410.43583 C 444.78359,388.35251 465.87241,350.65307 465.87241,348.97888 C 465.87241,346.82544 442.29644,304.85297 427.37172,280.43583 C 423.67372,274.38583 420.447,269.09833 420.20123,268.68583 C 419.95546,268.27333 423.11225,267.93583 427.21632,267.93583 L 434.67826,267.93583 L 440.65196,277.68583 C 447.75125,289.27298 462.89813,315.48538 468.406,325.71554 C 470.8542,330.26274 472.8687,332.89025 473.77285,332.71554 C 475.34004,332.4127 494.04295,294.00739 500.93689,276.93583 C 503.26898,271.16083 506.44335,263.64517 507.99103,260.23437 C 512.01684,251.36226 513.51578,247.75347 518.08358,235.93583 C 523.71433,221.36821 534.87241,187.93207 534.87241,185.62669 C 534.87241,184.58051 533.76532,182.40884 532.4122,180.80075 C 525.42189,172.49324 529.1028,158.37554 539.45283,153.79723 C 544.41675,151.60145 544.1878,152.13287 546.93246,136.43583 C 549.55468,121.43897 550.57744,96.88887 548.97601,87.38281 C 547.32964,77.61001 542.71852,68.52414 537.72964,65.22265 C 514.41007,49.79049 457.04311,91.70991 394.42905,169.93583 C 389.36635,176.26083 384.19672,182.84917 382.94098,184.57659 L 380.65782,187.71736 L 392.63208,204.57659 C 405.30636,222.42142 425.87241,253.17247 425.87241,254.27864 C 425.87241,255.08578 415.13291,255.1279 412.37241,254.33159 C 411.27241,254.01427 407.90246,249.87048 404.88364,245.12316 C 395.27511,230.01305 373.65558,199.93583 372.40295,199.93583 C 371.13819,199.93583 359.39518,216.06536 344.00921,238.93583 C 339.01409,246.36083 334.44711,252.99833 333.86036,253.68583 C 332.75628,254.97951 318.87241,255.52865 318.87241,254.27864 C 318.87241,253.14092 339.6182,222.15059 352.0824,204.66914 L 364.03698,187.90245 L 358.70469,180.67694 C 343.9699,160.71058 317.71606,130.86066 298.24497,111.93583 C 256.94199,71.7916 223.27572,54.46194 207.22531,65.08359 C 188.04704,77.77517 191.32007,132.45581 215.59648,204.93583 C 221.56778,222.76383 231.34262,248.75744 235.24784,257.19342 C 236.5826,260.07675 237.99581,263.56083 238.3883,264.93583 C 238.78079,266.31083 239.91652,269.01083 240.91215,270.93583 C 241.90777,272.86083 244.97428,279.61083 247.7266,285.93583 C 256.97688,307.19349 269.76927,332.93594 271.0764,332.92324 C 271.78921,332.91631 275.74741,326.77869 279.87241,319.28407 C 283.99741,311.78945 292.35078,297.28262 298.43545,287.04666 L 309.49848,268.43583 L 315.72893,267.66048 C 319.15568,267.23403 322.5727,267.23403 323.32232,267.66048 C 324.35942,268.25046 321.95162,272.97826 313.25102,287.43583 C 299.97983,309.48824 278.87241,347.21775 278.87241,348.8876 C 278.87241,350.98785 311.75002,409.44225 318.83341,419.93583 C 319.76156,421.31083 321.53674,424.12333 322.77824,426.18583 L 325.03553,429.93583 L 317.55104,429.93583 L 310.06656,429.93583 L 304.09286,420.18583 C 297.00173,408.61199 281.84841,382.38951 276.35486,372.18583 C 274.20803,368.19833 271.8589,364.93583 271.13456,364.93583 C 269.71483,364.93583 256.17577,392.32191 247.15726,413.43583 C 244.10324,420.58583 238.3391,434.08583 234.34806,443.43583 C 214.33417,490.32332 199.97929,539.6589 195.81981,575.85165 C 194.33862,588.73984 195.0809,610.57675 197.23334,617.43583 C 202.22578,633.34502 211.93779,638.63163 228.41231,634.40771 z M 342.37241,383.54698 C 334.4671,380.09351 328.93655,372.21013 328.89437,364.33505 C 328.83401,353.06332 336.01643,344.53681 347.59883,342.13034 C 352.70922,341.06856 354.18823,338.08242 352.28105,332.67687 C 346.9524,317.57389 358.33276,302.81414 374.28634,304.13714 C 388.07832,305.28087 397.07371,319.09228 392.59244,332.24408 C 390.58316,338.14101 391.92056,341.04466 397.14599,342.13034 C 408.6242,344.51516 415.87241,353.02534 415.87241,364.11717 C 415.87241,368.91099 414.05686,373.39048 410.31532,377.82813 C 402.32637,387.3034 386.55369,387.17048 378.11271,377.55674 C 374.21275,373.11492 370.19657,373.20726 366.30907,377.82813 C 360.97306,384.17076 349.87166,386.82306 342.37241,383.54698 z"
         style="fill:#8bc432" />
      <path
         id="path2870"
         d="M 207.8778,647.26784 C 174.88637,635.7252 173.2974,580.2392 203.35792,489.43583 C 207.36364,477.33583 213.6181,459.91969 217.25672,450.73331 C 220.89535,441.54692 223.87241,433.76361 223.87241,433.43707 C 223.87241,433.11052 225.3758,429.60166 227.21328,425.63959 C 229.05075,421.67752 232.97146,413.03583 235.92597,406.43583 C 244.56379,387.14003 265.73623,344.95298 276.82842,324.93583 C 292.87136,295.98449 309.14713,268.97754 310.8346,268.50821 C 311.68039,268.27297 314.73293,267.78099 317.61802,267.41493 C 321.63447,266.90532 322.98841,267.07455 323.39617,268.13714 C 323.68906,268.90042 318.80877,278.05488 312.55106,288.48038 C 288.06603,329.27309 260.69555,381.3918 247.98021,411.43583 C 244.48861,419.68583 240.60121,428.68583 239.34152,431.43583 C 219.05688,475.71901 201.35224,533.11547 196.31104,570.93583 C 194.51166,584.43517 194.51244,604.5737 196.31266,613.0669 C 197.84408,620.29192 201.55845,628.44397 204.55092,631.14769 C 215.43894,640.9851 237.36541,635.14982 264.45953,615.20424 C 290.43369,596.08314 322.56628,563.1445 354.3925,523.01532 L 364.24314,510.59481 L 368.05507,515.01532 C 370.15163,517.4466 371.86822,519.8901 371.86971,520.44533 C 371.87815,523.59592 336.29245,565.41201 315.60824,586.55714 C 289.19255,613.56147 268.80729,629.74313 248.37241,639.92843 C 230.93422,648.62009 218.29198,650.91142 207.8778,647.26784 z M 377.55559,506.34995 C 371.82605,500.17091 371.79729,500.3229 381.16254,487.28933 C 385.84706,480.7699 394.56222,468.23583 400.52957,459.43583 L 411.3793,443.43583 L 418.12585,443.14014 C 423.60696,442.89991 424.87241,443.12772 424.87241,444.35468 C 424.87241,446.90237 385.53378,504.4822 381.51387,507.81842 C 380.31842,508.81057 379.58485,508.53842 377.55559,506.34995 z M 421.31709,429.65226 C 421.00006,428.82611 423.60888,423.56192 427.27321,417.63372 C 453.64654,374.96661 488.95899,307.35984 502.06851,274.43583 C 504.25847,268.93583 506.39759,263.98583 506.8221,263.43583 C 510.15216,259.12141 534.87241,190.83522 534.87241,185.95082 C 534.87241,184.72637 533.76532,182.40884 532.4122,180.80075 C 527.76429,175.27702 527.74657,165.41173 532.37367,159.34529 C 533.84852,157.41167 537.14906,154.83552 539.70821,153.62052 C 544.26881,151.45529 544.38539,151.28258 545.57906,144.92362 C 549.92769,121.7575 551.08697,97.32978 548.43216,84.80476 C 546.90074,77.57974 543.18637,69.42769 540.1939,66.72397 C 529.30588,56.88656 507.37941,62.72184 480.28529,82.66742 C 454.31113,101.78852 422.17854,134.72716 390.35232,174.85634 L 380.50168,187.27685 L 376.68975,182.85634 C 374.59319,180.42506 372.8766,177.98156 372.87511,177.42633 C 372.86667,174.27574 408.45237,132.45964 429.13658,111.31451 C 455.368,84.49857 475.78607,68.25687 496.17041,57.99198 C 520.11621,45.93365 537.07903,46.09966 549.50067,58.51391 C 563.63088,72.63571 566.57786,104.52572 557.8381,148.73518 C 556.62133,154.89011 556.6505,155.09644 559.11041,157.73518 C 562.89664,161.79666 563.87241,164.29337 563.87241,169.91975 C 563.87241,177.8555 560.14825,183.21444 551.70489,187.42841 L 547.68269,189.43583 L 540.88585,209.93583 C 537.14759,221.21083 531.11528,237.95197 527.48071,247.13835 C 523.84615,256.32474 520.87241,264.10601 520.87241,264.43005 C 520.87241,264.7541 519.57527,267.81297 517.98987,271.22753 C 516.40448,274.6421 511.62474,285.08583 507.36823,294.43583 C 496.78392,317.68572 479.75385,351.54927 467.6955,373.32334 C 451.9026,401.84097 435.59192,428.89573 433.91022,429.36345 C 433.06443,429.59869 430.01189,430.09067 427.1268,430.45673 C 422.99295,430.98124 421.76164,430.81074 421.31709,429.65226 z M 342.37241,383.54698 C 328.88312,377.65413 324.7964,361.98469 333.64348,350.07822 C 336.35392,346.4305 344.79303,341.96124 348.99997,341.9456 C 353.49972,341.92887 354.46145,339.64578 352.53847,333.54539 C 349.515,323.95385 350.69231,317.62735 356.79391,310.67801 C 365.70788,300.52557 382.70076,302.16382 390.48465,313.92607 C 393.99087,319.22433 394.61283,325.53623 392.3614,332.9722 C 390.32208,339.7076 391.1595,341.92855 395.74485,341.9456 C 399.95179,341.96124 408.3909,346.4305 411.10134,350.07822 C 415.83211,356.44493 417.1928,364.84919 414.52395,371.21795 C 408.03227,386.70927 389.21292,389.60308 377.47356,376.9151 C 375.44859,374.7265 372.98525,372.93583 371.99947,372.93583 C 371.01369,372.93583 368.72109,374.78503 366.9048,377.04515 C 365.08851,379.30528 361.75069,381.9954 359.48743,383.02319 C 354.7097,385.19285 346.70102,385.43795 342.37241,383.54698 z M 319.87241,253.51698 C 319.87241,250.96929 359.21104,193.38946 363.23095,190.05324 C 364.4264,189.06109 365.15997,189.33324 367.18923,191.52171 C 372.91877,197.70075 372.94753,197.54876 363.58228,210.58233 C 358.89776,217.10176 350.1826,229.63583 344.21525,238.43583 L 333.36552,254.43583 L 326.61897,254.73152 C 321.13786,254.97175 319.87241,254.74394 319.87241,253.51698 z"
         style="fill:#da3129" />
      <path
         id="path2872"
         d="M 414.13616,443.21825 C 415.65622,442.98839 417.90622,442.99454 419.13616,443.2319 C 420.3661,443.46926 419.12241,443.65732 416.37241,443.64982 C 413.62241,443.64231 412.6161,443.4481 414.13616,443.21825 z M 223.90304,433.43583 C 223.90304,432.88583 224.33925,431.76083 224.87241,430.93583 C 225.40557,430.11083 225.84178,429.88583 225.84178,430.43583 C 225.84178,430.98583 225.40557,432.11083 224.87241,432.93583 C 224.33925,433.76083 223.90304,433.98583 223.90304,433.43583 z M 237.94328,433.43583 C 237.94328,432.88583 238.58639,431.31083 239.37241,429.93583 C 240.15843,428.56083 240.80154,427.88583 240.80154,428.43583 C 240.80154,428.98583 240.15843,430.56083 239.37241,431.93583 C 238.58639,433.31083 237.94328,433.98583 237.94328,433.43583 z M 423.14144,430.24284 C 424.11441,429.9893 425.46441,430.00597 426.14144,430.27989 C 426.81847,430.55382 426.02241,430.76126 424.37241,430.74088 C 422.72241,430.7205 422.16847,430.49638 423.14144,430.24284 z M 225.90304,428.43583 C 225.90304,427.88583 226.33925,426.76083 226.87241,425.93583 C 227.40557,425.11083 227.84178,424.88583 227.84178,425.43583 C 227.84178,425.98583 227.40557,427.11083 226.87241,427.93583 C 226.33925,428.76083 225.90304,428.98583 225.90304,428.43583 z M 342.37241,383.54698 C 328.88312,377.65413 324.7964,361.98469 333.64348,350.07822 C 336.35392,346.4305 344.79303,341.96124 348.99997,341.9456 C 353.49972,341.92887 354.46145,339.64578 352.53847,333.54539 C 349.515,323.95385 350.69231,317.62735 356.79391,310.67801 C 365.70788,300.52557 382.70076,302.16382 390.48465,313.92607 C 393.99087,319.22433 394.61283,325.53623 392.3614,332.9722 C 390.32208,339.7076 391.1595,341.92855 395.74485,341.9456 C 399.95179,341.96124 408.3909,346.4305 411.10134,350.07822 C 415.83211,356.44493 417.1928,364.84919 414.52395,371.21795 C 408.03227,386.70927 389.21292,389.60308 377.47356,376.9151 C 375.44859,374.7265 372.98525,372.93583 371.99947,372.93583 C 371.01369,372.93583 368.72109,374.78503 366.9048,377.04515 C 365.08851,379.30528 361.75069,381.9954 359.48743,383.02319 C 354.7097,385.19285 346.70102,385.43795 342.37241,383.54698 z M 516.90304,272.43583 C 516.90304,271.88583 517.33925,270.76083 517.87241,269.93583 C 518.40557,269.11083 518.84178,268.88583 518.84178,269.43583 C 518.84178,269.98583 518.40557,271.11083 517.87241,271.93583 C 517.33925,272.76083 516.90304,272.98583 516.90304,272.43583 z M 503.4367,270.6427 C 503.81223,269.65648 504.37139,269.10148 504.67928,269.40937 C 504.98717,269.71726 504.67992,270.52416 503.9965,271.2025 C 503.00888,272.18276 502.89402,272.0679 503.4367,270.6427 z M 319.14144,267.24284 C 320.11441,266.9893 321.46441,267.00597 322.14144,267.27989 C 322.81847,267.55382 322.02241,267.76126 320.37241,267.74088 C 318.72241,267.7205 318.16847,267.49638 319.14144,267.24284 z M 504.90304,267.43583 C 504.90304,266.88583 505.33925,265.76083 505.87241,264.93583 C 506.40557,264.11083 506.84178,263.88583 506.84178,264.43583 C 506.84178,264.98583 506.40557,266.11083 505.87241,266.93583 C 505.33925,267.76083 504.90304,267.98583 504.90304,267.43583 z M 518.90304,267.43583 C 518.90304,266.88583 519.33925,265.76083 519.87241,264.93583 C 520.40557,264.11083 520.84178,263.88583 520.84178,264.43583 C 520.84178,264.98583 520.40557,266.11083 519.87241,266.93583 C 519.33925,267.76083 518.90304,267.98583 518.90304,267.43583 z M 326.62241,254.2301 C 327.85991,253.99174 329.88491,253.99174 331.12241,254.2301 C 332.35991,254.46845 331.34741,254.66347 328.87241,254.66347 C 326.39741,254.66347 325.38491,254.46845 326.62241,254.2301 z"
         style="fill:#26184f" />
      <path
         sodipodi:type="arc"
         style="opacity:1;fill:#ffffff;fill-opacity:1;stroke:#ffffff;stroke-width:5;stroke-miterlimit:4;stroke-dasharray:none;stroke-opacity:1"
         id="path2874"
         sodipodi:cx="372.15353"
         sodipodi:cy="356.84644"
         sodipodi:rx="19.133858"
         sodipodi:ry="19.133858"
         d="M 391.28739,356.84644 A 19.133858,19.133858 0 1 1 353.01968,356.84644 A 19.133858,19.133858 0 1 1 391.28739,356.84644 z"
         transform="translate(0,-5.7401574)" />
    </g>
  </g>
</svg>
